<?xml version="1.0" standalone="no"?>
<svg xmlns:xlink="http://www.w3.org/1999/xlink" id="wave" viewBox="0 0 1440 490" version="1.1" xmlns="http://www.w3.org/2000/svg" transform="rotate(180)">
<defs><linearGradient id="sw-gradient-0" x1="0" x2="0" y1="1" y2="0"><stop stop-color="rgba(243, 106, 62, 1)" offset="0%"/><stop stop-color="rgba(255, 179, 11, 1)" offset="100%"/></linearGradient></defs>
<path fill="url(#sw-gradient-0)" d="M0,392L18.5,351.2C36.9,310,74,229,111,212.3C147.7,196,185,245,222,285.8C258.5,327,295,359,332,318.5C369.2,278,406,163,443,122.5C480,82,517,114,554,179.7C590.8,245,628,343,665,383.8C701.5,425,738,408,775,334.8C812.3,261,849,131,886,73.5C923.1,16,960,33,997,73.5C1033.8,114,1071,180,1108,220.5C1144.6,261,1182,278,1218,294C1255.4,310,1292,327,1329,277.7C1366.2,229,1403,114,1440,114.3C1476.9,114,1514,229,1551,245C1587.7,261,1625,180,1662,138.8C1698.5,98,1735,98,1772,114.3C1809.2,131,1846,163,1883,155.2C1920,147,1957,98,1994,130.7C2030.8,163,2068,278,2105,277.7C2141.5,278,2178,163,2215,138.8C2252.3,114,2289,180,2326,212.3C2363.1,245,2400,245,2437,212.3C2473.8,180,2511,114,2548,81.7C2584.6,49,2622,49,2640,49L2658.5,49L2658.5,490L2640,490C2621.5,490,2585,490,2548,490C2510.8,490,2474,490,2437,490C2400,490,2363,490,2326,490C2289.2,490,2252,490,2215,490C2178.5,490,2142,490,2105,490C2067.7,490,2031,490,1994,490C1956.9,490,1920,490,1883,490C1846.2,490,1809,490,1772,490C1735.4,490,1698,490,1662,490C1624.6,490,1588,490,1551,490C1513.8,490,1477,490,1440,490C1403.1,490,1366,490,1329,490C1292.3,490,1255,490,1218,490C1181.5,490,1145,490,1108,490C1070.8,490,1034,490,997,490C960,490,923,490,886,490C849.2,490,812,490,775,490C738.5,490,702,490,665,490C627.7,490,591,490,554,490C516.9,490,480,490,443,490C406.2,490,369,490,332,490C295.4,490,258,490,222,490C184.6,490,148,490,111,490C73.8,490,37,490,18,490L0,490Z"/>
<defs><linearGradient id="sw-gradient-1" x1="0" x2="0" y1="1" y2="0"><stop stop-color="rgba(243, 106, 62, 1)" offset="0%"/><stop stop-color="rgba(255, 179, 11, 1)" offset="100%"/></linearGradient></defs>
<path fill="url(#sw-gradient-1)" opacity="0.9" d="M0,0L18.5,32.7C36.9,65,74,131,111,179.7C147.7,229,185,261,222,285.8C258.5,310,295,327,332,351.2C369.2,376,406,408,443,416.5C480,425,517,408,554,383.8C590.8,359,628,327,665,302.2C701.5,278,738,261,775,285.8C812.3,310,849,376,886,367.5C923.1,359,960,278,997,245C1033.8,212,1071,229,1108,253.2C1144.6,278,1182,310,1218,285.8C1255.4,261,1292,180,1329,187.8C1366.2,196,1403,294,1440,351.2C1476.9,408,1514,425,1551,400.2C1587.7,376,1625,310,1662,310.3C1698.5,310,1735,376,1772,400.2C1809.2,425,1846,408,1883,343C1920,278,1957,163,1994,98C2030.8,33,2068,16,2105,49C2141.5,82,2178,163,2215,171.5C2252.3,180,2289,114,2326,114.3C2363.1,114,2400,180,2437,236.8C2473.8,294,2511,343,2548,302.2C2584.6,261,2622,131,2640,65.3L2658.5,0L2658.5,490L2640,490C2621.5,490,2585,490,2548,490C2510.8,490,2474,490,2437,490C2400,490,2363,490,2326,490C2289.2,490,2252,490,2215,490C2178.5,490,2142,490,2105,490C2067.7,490,2031,490,1994,490C1956.9,490,1920,490,1883,490C1846.2,490,1809,490,1772,490C1735.4,490,1698,490,1662,490C1624.6,490,1588,490,1551,490C1513.8,490,1477,490,1440,490C1403.1,490,1366,490,1329,490C1292.3,490,1255,490,1218,490C1181.5,490,1145,490,1108,490C1070.8,490,1034,490,997,490C960,490,923,490,886,490C849.2,490,812,490,775,490C738.5,490,702,490,665,490C627.7,490,591,490,554,490C516.9,490,480,490,443,490C406.2,490,369,490,332,490C295.4,490,258,490,222,490C184.6,490,148,490,111,490C73.8,490,37,490,18,490L0,490Z"/>
</svg>
